<svg xmlns="http://www.w3.org/2000/svg" viewBox="0 0 200 200" fill="none" stroke="#1c1c1c" stroke-width="10" stroke-linecap="round" stroke-linejoin="round">
  <circle cx="100" cy="60" r="40" fill="none" />
  <path d="M72 50c5 8 14 12 28 12s24-4 28-12" />
  <path d="M78 180c8-26 8-60 8-100" />
  <path d="M122 180c-8-26-8-60-8-100" />
  <path d="M36 88c20 0 30 10 40 22" />
  <path d="M164 88c-20 0-30 10-40 22" />
  <path d="M86 184c-8 10-22 12-38 2" />
  <path d="M114 184c8 10 22 12 38 2" />
</svg>
